                                 $$TheAaax9$$
                                --------------

++++++++++++++++++++++++++++++++++++++++++++++++++++++++++++++++++++++++++

Present by TheAaax9
--------------------

Sample Include In Torrent

========================================================================== 

Screenshots :-
 
http://www.freeuploadimages.org/images/6ni8xrnoflpcqqiozbk.png
 
http://www.freeuploadimages.org/images/zrl3ki1qy7pyleg4dr2.png
 
http://www.freeuploadimages.org/images/7j507on1j1rymhwo6qo3.png
 
http://www.freeuploadimages.org/images/j878hw9d6gi38wgy0z8z.png
 
http://www.freeuploadimages.org/images/bnktwgw4ywrxxuohabu4.png

========================================================================== 

General
Complete name                    : Dil Toh Baccha Hai Ji (2011) DVDScr Rip_TheAaax9
Format                           : AVI
Format/Info                      : Audio Video Interleave
Format profile                   : OpenDML
File size                        : 687 MiB
Duration                         : 2h 17mn
Overall bit rate                 : 697 Kbps
Writing application              : AVI-Mux GUI 1.17.8.3, Feb 16 201019:42:50

Video
ID                               : 0
Format                           : MPEG-4 Visual
Format profile                   : AdvancedSimple@L5
Format settings, BVOP            : Yes
Format settings, QPel            : No
Format settings, GMC             : No warppoints
Format settings, Matrix          : Default (H.263)
Codec ID                         : XVID
Codec ID/Hint                    : XviD
Duration                         : 2h 17mn
Bit rate                         : 579 Kbps
Width                            : 592 pixels
Height                           : 272 pixels
Display aspect ratio             : 2.2:1
Frame rate                       : 23.976 fps
Resolution                       : 24 bits
Colorimetry                      : 4:2:0
Scan type                        : Progressive
Bits/(Pixel*Frame)               : 0.150
Stream size                      : 571 MiB (83%)
Writing library                  : XviD 1.2.1 (UTC 2008-12-04)

Audio
ID                               : 1
Format                           : MPEG Audio
Format version                   : Version 1
Format profile                   : Layer 3
Codec ID                         : 55
Codec ID/Hint                    : MP3
Duration                         : 2h 17mn
Bit rate mode                    : Variable
Bit rate                         : 109 Kbps
Nominal bit rate                 : 128 Kbps
Channel(s)                       : 2 channels
Sampling rate                    : 48.0 KHz
Resolution                       : 16 bits
Stream size                      : 108 MiB (16%)
Alignment                        : Aligned on interleaves
Interleave, duration             : 24 ms (0.58 video frame)
Interleave, preload duration     : 221 ms
Title                            : VTS_01_1 T80 2_0ch 192Kbps DELAY 0ms
Writing library                  : LAME3.98r
Encoding settings                : -m j -V 4 -q 2 -lowpass 17 --abr 128

========================================================================== 

Screenshots :-
 
http://www.freeuploadimages.org/images/6ni8xrnoflpcqqiozbk.png
 
http://www.freeuploadimages.org/images/zrl3ki1qy7pyleg4dr2.png
 
http://www.freeuploadimages.org/images/7j507on1j1rymhwo6qo3.png
 
http://www.freeuploadimages.org/images/j878hw9d6gi38wgy0z8z.png
 
http://www.freeuploadimages.org/images/bnktwgw4ywrxxuohabu4.png

========================================================================== 

Present by TheAaax9
--------------------

Sample Include In Torrent

++++++++++++++++++++++++++++++++++++++++++++++++++++++++++++++++++++++++++

                                 $$TheAaax9$$
                                --------------
